<?xml version="1.0" standalone="no"?>
<svg viewBox="0 0 200 200" xmlns="http://www.w3.org/2000/svg">
  <path fill="#F9B6FE" d="M36.4,-62.4C47.4,-56.7,56.7,-47.4,65.3,-36.4C73.9,-25.4,81.9,-12.7,79.9,-1.1C78,10.4,66.1,20.9,58.2,33.1C50.2,45.3,46.2,59.2,37.2,65.1C28.2,70.9,14.1,68.7,-0.1,68.9C-14.3,69.1,-28.6,71.7,-42,68.4C-55.5,65,-68,55.8,-72.3,43.4C-76.6,31,-72.6,15.5,-70,1.5C-67.5,-12.6,-66.4,-25.1,-61.5,-36.5C-56.7,-47.9,-48.1,-58.1,-37.2,-63.9C-26.3,-69.6,-13.1,-70.9,-0.2,-70.6C12.7,-70.2,25.4,-68.1,36.4,-62.4Z" transform="translate(100 100)" />
</svg>
