<svg xmlns="http://www.w3.org/2000/svg" xmlns:xlink="http://www.w3.org/1999/xlink" id="visual" viewBox="0 0 900 600"
     width="900" height="600" version="1.1">
    <rect x="0" y="0" width="900" height="600" fill="#001220"/>
    <path d="M0 234L37.5 229.8C75 225.7 150 217.3 225 228C300 238.7 375 268.3 450 252.2C525 236 600 174 675 158.2C750 142.3 825 172.7 862.5 187.8L900 203L900 601L862.5 601C825 601 750 601 675 601C600 601 525 601 450 601C375 601 300 601 225 601C150 601 75 601 37.5 601L0 601Z"
          fill="#9229E5"/>
    <path d="M0 223L37.5 235.2C75 247.3 150 271.7 225 285.3C300 299 375 302 450 288.8C525 275.7 600 246.3 675 242.2C750 238 825 259 862.5 269.5L900 280L900 601L862.5 601C825 601 750 601 675 601C600 601 525 601 450 601C375 601 300 601 225 601C150 601 75 601 37.5 601L0 601Z"
          fill="#F0F8BB"/>
    <path d="M0 334L37.5 353.5C75 373 150 412 225 432.5C300 453 375 455 450 438.3C525 421.7 600 386.3 675 383.2C750 380 825 409 862.5 423.5L900 438L900 601L862.5 601C825 601 750 601 675 601C600 601 525 601 450 601C375 601 300 601 225 601C150 601 75 601 37.5 601L0 601Z"
          fill="#F9B6FE"/>
    <path d="M0 497L37.5 485.5C75 474 150 451 225 440.2C300 429.3 375 430.7 450 447.5C525 464.3 600 496.7 675 505.7C750 514.7 825 500.3 862.5 493.2L900 486L900 601L862.5 601C825 601 750 601 675 601C600 601 525 601 450 601C375 601 300 601 225 601C150 601 75 601 37.5 601L0 601Z"
          fill="#51180B"/>
</svg>